<svg xmlns="http://www.w3.org/2000/svg" width="64" height="64.001" viewBox="0 0 64 64.001">
  <defs>
    <style>
      .cls-1 {
        fill: #fff;
      }

      .cls-2, .cls-3 {
        stroke: none;
      }

      .cls-3 {
        fill: #080606;
      }
    </style>
  </defs>
  <g id="Path_99" data-name="Path 99" class="cls-1" transform="translate(-5 -5)">
    <path class="cls-2" d="M 62.50032806396484 62.50104904174805 L 54.23117446899414 62.50070571899414 L 57.00060653686523 62.50070571899414 L 62.50032806396484 62.50070571899414 L 62.50032806396484 62.50104904174805 Z"/>
    <path class="cls-3" d="M 69.00032043457031 69.00131988525391 L 68.99931335449219 69.00131988525391 L 45.00000381469727 69.00032043457031 L 45.00000381469727 56.00069046020508 L 57.0006103515625 56.00069046020508 L 57.0006103515625 45.00000381469727 L 69.00032043457031 45.00000381469727 L 69.00032043457031 69.00032043457031 L 69.00032043457031 69.00131988525391 Z M 29.99969100952148 69.00032043457031 L 29.99869155883789 69.00032043457031 L 5.000400066375732 69.00032043457031 L 5.000400066375732 45.00000381469727 L 17.00010871887207 45.00000381469727 L 17.00010871887207 56.00069046020508 L 29.99969100952148 56.00069046020508 L 29.99969100952148 68.99931335449219 L 29.99969100952148 69.00032043457031 Z M 69.00032043457031 29.99969100952148 L 68.99931335449219 29.99969100952148 L 57.0006103515625 29.99969100952148 L 57.0006103515625 18.00000381469727 L 45.00000381469727 18.00000381469727 L 45.00000381469727 5.000400066375732 L 69.00032043457031 5.000400066375732 L 69.00032043457031 29.99869155883789 L 69.00032043457031 29.99969100952148 Z M 17.00010871887207 29.99969100952148 L 16.99910926818848 29.99969100952148 L 5.000400066375732 29.99969100952148 L 5.000400066375732 5.000400066375732 L 29.99969100952148 5.000400066375732 L 29.99969100952148 18.00000381469727 L 17.00010871887207 18.00000381469727 L 17.00010871887207 29.99869155883789 L 17.00010871887207 29.99969100952148 Z"/>
  </g>
</svg>
